<?xml version="1.0" standalone="no"?><!DOCTYPE svg PUBLIC "-//W3C//DTD SVG 1.1//EN" "http://www.w3.org/Graphics/SVG/1.1/DTD/svg11.dtd"><svg t="1650894520823" class="icon" viewBox="0 0 1024 1024" version="1.1" xmlns="http://www.w3.org/2000/svg" p-id="5824" xmlns:xlink="http://www.w3.org/1999/xlink" width="200" height="200"><defs><style type="text/css">@font-face { font-family: feedback-iconfont; src: url("//at.alicdn.com/t/font_1031158_u69w8yhxdu.woff2?t=1630033759944") format("woff2"), url("//at.alicdn.com/t/font_1031158_u69w8yhxdu.woff?t=1630033759944") format("woff"), url("//at.alicdn.com/t/font_1031158_u69w8yhxdu.ttf?t=1630033759944") format("truetype"); }
</style></defs><path d="M896 265.6L805.333333 213.333333a42.666667 42.666667 0 0 0-42.666666 73.813334L832 327.253333v369.493334l-320 184.746666-320-184.746666V327.253333l320-184.746666 69.333333 40.106666a42.666667 42.666667 0 0 0 42.666667-74.026666L533.333333 56.32a42.666667 42.666667 0 0 0-42.666666 0L128 265.6a42.666667 42.666667 0 0 0-21.333333 37.12v418.56a42.666667 42.666667 0 0 0 21.333333 37.12l362.666667 209.28a42.666667 42.666667 0 0 0 42.666666 0l362.666667-209.28a42.666667 42.666667 0 0 0 21.333333-37.12V302.72a42.666667 42.666667 0 0 0-21.333333-37.12z" fill="#333333" p-id="5825"></path><path d="M512 341.333333a170.666667 170.666667 0 1 0 170.666667 170.666667 170.666667 170.666667 0 0 0-170.666667-170.666667z m0 256a85.333333 85.333333 0 1 1 85.333333-85.333333 85.333333 85.333333 0 0 1-85.333333 85.333333z" fill="#333333" p-id="5826"></path></svg>