<?xml version="1.0" standalone="no"?><!DOCTYPE svg PUBLIC "-//W3C//DTD SVG 1.1//EN" "http://www.w3.org/Graphics/SVG/1.1/DTD/svg11.dtd"><svg t="1650619771106" class="icon" viewBox="0 0 1024 1024" version="1.1" xmlns="http://www.w3.org/2000/svg" p-id="19083" xmlns:xlink="http://www.w3.org/1999/xlink" width="200" height="200"><defs><style type="text/css">@font-face { font-family: feedback-iconfont; src: url("//at.alicdn.com/t/font_1031158_u69w8yhxdu.woff2?t=1630033759944") format("woff2"), url("//at.alicdn.com/t/font_1031158_u69w8yhxdu.woff?t=1630033759944") format("woff"), url("//at.alicdn.com/t/font_1031158_u69w8yhxdu.ttf?t=1630033759944") format("truetype"); }
</style></defs><path d="M512 512m-512 0a512 512 0 1 0 1024 0 512 512 0 1 0-1024 0Z" fill="#D6D6D6" p-id="19084"></path><path d="M372.792889 474.012444a197.688889 197.688889 0 0 1-42.709333-63.886222 197.816889 197.816889 0 0 1-15.004445-75.363555c0-25.742222 5.134222-51.569778 15.004445-75.349334a197.688889 197.688889 0 0 1 42.709333-63.886222 196.152889 196.152889 0 0 1 63.857778-42.695111A198.115556 198.115556 0 0 1 512 137.841778c25.784889 0 51.569778 5.063111 75.349333 14.990222a197.802667 197.802667 0 0 1 63.857778 42.695111 198.812444 198.812444 0 0 1 42.709333 63.886222 197.034667 197.034667 0 0 1 15.004445 75.349334c0 25.742222-5.134222 51.584-15.004445 75.377777a196.593778 196.593778 0 0 1-42.709333 63.857778 199.480889 199.480889 0 0 1-63.857778 42.709334A198.499556 198.499556 0 0 1 512 531.697778a198.115556 198.115556 0 0 1-75.349333-14.990222 197.802667 197.802667 0 0 1-63.857778-42.695112z m266.666667 57.685334c99.342222 46.933333 168.021333 147.2 167.921777 263.196444 0 120.846222-590.762667 122.496-590.762666 0 0-115.911111 68.366222-215.950222 167.424-262.997333a232.376889 232.376889 0 0 0 127.502222 37.774222c47.345778 0 91.235556-13.994667 127.900444-37.973333z" fill="#FFFFFF" p-id="19085"></path></svg>