<?xml version="1.0" standalone="no"?><!DOCTYPE svg PUBLIC "-//W3C//DTD SVG 1.1//EN" "http://www.w3.org/Graphics/SVG/1.1/DTD/svg11.dtd"><svg t="1650895276766" class="icon" viewBox="0 0 1024 1024" version="1.1" xmlns="http://www.w3.org/2000/svg" p-id="6638" xmlns:xlink="http://www.w3.org/1999/xlink" width="200" height="200"><defs><style type="text/css">@font-face { font-family: feedback-iconfont; src: url("//at.alicdn.com/t/font_1031158_u69w8yhxdu.woff2?t=1630033759944") format("woff2"), url("//at.alicdn.com/t/font_1031158_u69w8yhxdu.woff?t=1630033759944") format("woff"), url("//at.alicdn.com/t/font_1031158_u69w8yhxdu.ttf?t=1630033759944") format("truetype"); }
</style></defs><path d="M201.15585899 144.5873165c111.01576465-111.01576465 269.8319477-160.65466069 424.90046482-132.72394283 11.87939392 2.12132034 21.56675683 10.81873375 25.03158005 22.48599564 3.46482323 11.66726189 0.49497475 24.67802666-8.83883477 32.45620125l-5.72756492 5.16187951c-1.83847763 1.55563492-3.60624458 3.18198052-5.30330086 4.87903679-162.2102956 162.2102956-162.2102956 426.10254634 0 588.31284195 60.1040764 60.1040764 136.25947673 99.91418818 220.0516303 114.97556262 11.87939392 2.12132034 21.56675683 10.81873375 25.03158006 22.48599564 3.46482323 11.66726189 0.28284271 24.60731599-8.83883477 32.45620125C677.25085476 1011.99520498 384.65006871 1006.90403615 201.15585899 823.40982643c-187.17116498-187.17116498-187.17116498-491.65134496 0-678.82250993zM552.44650788 68.36120548c-113.70277041-3.25269119-224.71853506 40.02224382-306.10652557 121.41023433-162.2102956 162.2102956-162.2102956 426.10254634 0 588.31284195 144.24978336 144.24978336 366.21060198 161.29105679 529.12800436 48.71965722-71.34707422-23.2638131-136.0473447-62.93250353-189.71674939-116.60190821-175.22106038-175.22106038-186.32263684-453.46757877-33.3047294-641.84082529z" fill="#2c2c2c" p-id="6639"></path></svg>