<?xml version="1.0" standalone="no"?><!DOCTYPE svg PUBLIC "-//W3C//DTD SVG 1.1//EN" "http://www.w3.org/Graphics/SVG/1.1/DTD/svg11.dtd"><svg t="1650612396666" class="icon" viewBox="0 0 1024 1024" version="1.1" xmlns="http://www.w3.org/2000/svg" p-id="12896" xmlns:xlink="http://www.w3.org/1999/xlink" width="200" height="200"><defs><style type="text/css">@font-face { font-family: feedback-iconfont; src: url("//at.alicdn.com/t/font_1031158_u69w8yhxdu.woff2?t=1630033759944") format("woff2"), url("//at.alicdn.com/t/font_1031158_u69w8yhxdu.woff?t=1630033759944") format("woff"), url("//at.alicdn.com/t/font_1031158_u69w8yhxdu.ttf?t=1630033759944") format("truetype"); }
</style></defs><path d="M329.216 376.832c8.704 0 17.92-4.608 22.016-9.216l133.12-137.216v457.216c0 18.432 13.312 36.352 35.328 36.352 22.016 0 35.328-13.824 35.328-36.352V230.4l132.608 137.216c13.312 13.824 35.328 13.824 48.64 0s13.312-36.352 0-50.176l-190.464-196.608c-4.608-4.608-4.608-4.608-8.704-4.608h-26.624c-4.608 0-8.704 4.608-8.704 4.608L302.592 317.44c-13.312 13.824-13.312 32.256 0 45.568 8.704 9.216 17.92 13.824 26.624 13.824z" p-id="12897"></path><path d="M896 436.224c-17.92 0-35.328 13.824-35.328 36.352v251.392c0 50.176-39.936 96.256-93.184 96.256H267.264c-48.64 0-93.184-40.96-93.184-96.256v-256c0-18.432-13.312-36.352-35.328-36.352s-26.624 18.432-26.624 36.352v251.392c0 91.648 70.656 164.352 159.232 164.352h500.224c88.576 0 159.232-73.216 159.232-164.352V467.968c0.512-17.92-16.896-31.744-34.816-31.744z" p-id="12898"></path></svg>